<svg width="127" height="82" viewBox="0 0 127 82" fill="none" xmlns="http://www.w3.org/2000/svg">
<rect x="26.0294" y="29.6508" width="100" height="22" rx="11" fill="#FFB55F"/>
<path fill-rule="evenodd" clip-rule="evenodd" d="M3.45406 33.481C-0.644079 37.5791 -0.648367 44.2278 3.44977 48.3259C3.4512 48.3274 3.45263 48.3288 3.45406 48.3302L11.5858 56.4619L33.8596 78.7358C37.9602 82.8363 44.6084 82.8363 48.7089 78.7358C52.8094 74.6353 52.8094 67.9871 48.7089 63.8866L34.9203 50.098C30.234 45.4117 30.234 37.8137 34.9203 33.1274L49.0624 18.9853C53.3582 14.6895 53.3582 7.7247 49.0624 3.42893C44.7667 -0.866834 37.8019 -0.866834 33.5061 3.42893L3.45406 33.481Z" fill="#FFB55F"/>
</svg>
