<svg width="104" height="59" viewBox="0 0 104 59" fill="none" xmlns="http://www.w3.org/2000/svg">
<path d="M2.96828 59C2.35228 59 1.84828 58.804 1.45628 58.412C1.06428 58.02 0.868281 57.516 0.868281 56.9V2.3C0.868281 1.684 1.06428 1.18 1.45628 0.787998C1.84828 0.395997 2.35228 0.199996 2.96828 0.199996H42.1963C42.8123 0.199996 43.3163 0.395997 43.7083 0.787998C44.1003 1.18 44.2963 1.684 44.2963 2.3V10.196C44.2963 10.812 44.1003 11.316 43.7083 11.708C43.3163 12.1 42.8123 12.296 42.1963 12.296H15.4003V23.636H40.3483C40.9643 23.636 41.4683 23.86 41.8603 24.308C42.2523 24.7 42.4483 25.204 42.4483 25.82V33.128C42.4483 33.688 42.2523 34.192 41.8603 34.64C41.4683 35.032 40.9643 35.228 40.3483 35.228H15.4003V46.904H42.8683C43.4843 46.904 43.9883 47.1 44.3803 47.492C44.7723 47.884 44.9683 48.388 44.9683 49.004V56.9C44.9683 57.516 44.7723 58.02 44.3803 58.412C43.9883 58.804 43.4843 59 42.8683 59H2.96828ZM56.6167 59C56.0007 59 55.4967 58.804 55.1047 58.412C54.7127 58.02 54.5167 57.516 54.5167 56.9V2.3C54.5167 1.684 54.7127 1.18 55.1047 0.787998C55.4967 0.395997 56.0007 0.199996 56.6167 0.199996H65.5207C66.4727 0.199996 67.1447 0.423996 67.5367 0.871997C67.9847 1.264 68.2647 1.572 68.3767 1.796L88.8727 34.136V2.3C88.8727 1.684 89.0687 1.18 89.4607 0.787998C89.8527 0.395997 90.3567 0.199996 90.9727 0.199996H101.053C101.669 0.199996 102.173 0.395997 102.565 0.787998C102.957 1.18 103.153 1.684 103.153 2.3V56.9C103.153 57.46 102.957 57.964 102.565 58.412C102.173 58.804 101.669 59 101.053 59H92.0647C91.1687 59 90.4967 58.776 90.0487 58.328C89.6567 57.88 89.4047 57.572 89.2927 57.404L68.7967 26.324V56.9C68.7967 57.516 68.6007 58.02 68.2087 58.412C67.8167 58.804 67.3127 59 66.6967 59H56.6167Z" fill="#75C2ED"/>
</svg>
