<svg width="109" height="59" viewBox="0 0 109 59" fill="none" xmlns="http://www.w3.org/2000/svg">
<path d="M26.8322 0.199996C34.1122 0.199996 39.7962 1.88 43.8842 5.24C48.0282 8.544 50.1002 13.416 50.1002 19.856C50.1002 26.296 48.0282 31.196 43.8842 34.556C39.7962 37.916 34.1122 39.596 26.8322 39.596H16.0802V56.732C16.0802 57.348 15.8562 57.88 15.4082 58.328C14.9602 58.776 14.4282 59 13.8122 59H2.80816C2.19216 59 1.66016 58.776 1.21216 58.328C0.764156 57.88 0.540156 57.348 0.540156 56.732V2.468C0.540156 1.852 0.764156 1.32 1.21216 0.871997C1.66016 0.423996 2.19216 0.199996 2.80816 0.199996H26.8322ZM26.4122 26.492C28.8762 26.492 30.8362 25.96 32.2922 24.896C33.8042 23.776 34.5602 22.096 34.5602 19.856C34.5602 17.616 33.8042 15.964 32.2922 14.9C30.8362 13.78 28.8762 13.22 26.4122 13.22H16.0802V26.492H26.4122ZM87.3581 41.948C84.3341 47.548 81.1421 51.804 77.7821 54.716C74.4781 57.572 70.3061 59 65.2661 59H59.1341C58.5181 59 57.9861 58.776 57.5381 58.328C57.0901 57.88 56.8661 57.348 56.8661 56.732V47.828C56.8661 47.212 57.0901 46.68 57.5381 46.232C57.9861 45.784 58.5181 45.56 59.1341 45.56H65.2661C66.5541 45.56 67.8141 45 69.0461 43.88C70.2781 42.704 71.6221 40.8 73.0781 38.168L54.0101 3.14C53.7861 2.748 53.6741 2.384 53.6741 2.048C53.6741 1.544 53.8421 1.124 54.1781 0.787998C54.5701 0.395997 55.0181 0.199996 55.5221 0.199996H67.1141C68.0661 0.199996 68.8221 0.451996 69.3821 0.955996C69.9981 1.404 70.4181 1.852 70.6421 2.3L81.1421 22.964L91.8101 2.3C92.0341 1.852 92.4261 1.404 92.9861 0.955996C93.6021 0.451996 94.3861 0.199996 95.3381 0.199996H106.846C107.35 0.199996 107.77 0.395997 108.106 0.787998C108.498 1.124 108.694 1.544 108.694 2.048C108.694 2.384 108.582 2.748 108.358 3.14L87.3581 41.948Z" fill="#75C2ED"/>
</svg>
