<svg width="109" height="60" viewBox="0 0 109 60" fill="none" xmlns="http://www.w3.org/2000/svg">
<path d="M2.50734 59C1.89134 59 1.38734 58.804 0.995344 58.412C0.603344 58.02 0.407344 57.516 0.407344 56.9V2.3C0.407344 1.684 0.603344 1.18 0.995344 0.787998C1.38734 0.395997 1.89134 0.199996 2.50734 0.199996H25.3553C32.5793 0.199996 38.2633 1.88 42.4073 5.24C46.6073 8.544 48.7073 13.248 48.7073 19.352C48.7073 23.328 47.7273 26.688 45.7673 29.432C43.8633 32.176 41.3433 34.248 38.2073 35.648L49.7993 56.312C49.9673 56.648 50.0513 56.956 50.0513 57.236C50.0513 57.684 49.8553 58.104 49.4633 58.496C49.1273 58.832 48.7073 59 48.2033 59H37.1153C36.0513 59 35.2673 58.748 34.7633 58.244C34.2593 57.684 33.8953 57.18 33.6713 56.732L24.0953 38.252H15.4433V56.9C15.4433 57.516 15.2473 58.02 14.8553 58.412C14.4633 58.804 13.9593 59 13.3433 59H2.50734ZM15.4433 26.408H25.1873C27.8193 26.408 29.7793 25.764 31.0673 24.476C32.4113 23.188 33.0833 21.424 33.0833 19.184C33.0833 17 32.4393 15.236 31.1513 13.892C29.9193 12.548 27.9313 11.876 25.1873 11.876H15.4433V26.408ZM83.0975 59.84C78.0575 59.84 73.6335 59.028 69.8255 57.404C66.0735 55.724 63.1615 53.176 61.0895 49.76C59.0175 46.288 57.9815 41.892 57.9815 36.572V2.3C57.9815 1.684 58.1775 1.18 58.5695 0.787998C58.9615 0.395997 59.4655 0.199996 60.0815 0.199996H70.9175C71.5335 0.199996 72.0375 0.395997 72.4295 0.787998C72.8215 1.18 73.0175 1.684 73.0175 2.3V36.488C73.0175 40.128 73.8855 42.872 75.6215 44.72C77.4135 46.512 79.9055 47.408 83.0975 47.408C86.2335 47.408 88.6695 46.512 90.4055 44.72C92.1975 42.872 93.0935 40.128 93.0935 36.488V2.3C93.0935 1.684 93.2895 1.18 93.6815 0.787998C94.1295 0.395997 94.6335 0.199996 95.1935 0.199996H106.113C106.673 0.199996 107.149 0.395997 107.541 0.787998C107.989 1.18 108.213 1.684 108.213 2.3V36.572C108.213 41.892 107.177 46.288 105.105 49.76C103.033 53.176 100.121 55.724 96.3695 57.404C92.6175 59.028 88.1935 59.84 83.0975 59.84Z" fill="#75C2ED"/>
</svg>
