<svg width="424" height="243" viewBox="0 0 424 243" fill="none" xmlns="http://www.w3.org/2000/svg">
<path d="M206.576 10.9797C207.77 4.61336 213.329 0 219.806 0H259.718C268.146 0 274.501 7.65724 272.948 15.9409L237.614 204.385C236.42 210.752 230.862 215.365 224.384 215.365H184.473C176.045 215.365 169.69 207.708 171.243 199.424L206.576 10.9797Z" fill="#FAF8F1"/>
<path d="M410.54 148.063C417.974 148.063 424 154.09 424 161.524L424 201.905C424 209.339 417.974 215.365 410.54 215.365L355.016 215.365C347.582 215.365 341.556 209.339 341.556 201.905L341.556 161.524C341.556 154.09 347.582 148.063 355.016 148.063L410.54 148.063Z" fill="#FAF8F1"/>
<path d="M354.64 10.9797C355.833 4.61336 361.392 0 367.869 0H407.781C416.209 0 422.564 7.65724 421.011 15.9409L385.678 204.385C384.484 210.752 378.925 215.365 372.448 215.365H332.536C324.108 215.365 317.753 207.708 319.306 199.424L354.64 10.9797Z" fill="#FAF8F1"/>
<path d="M368.339 74.032C374.94 74.032 380.567 78.8189 381.625 85.3346L388.183 125.715C389.513 133.903 383.192 141.333 374.897 141.333L63.9366 141.333C56.5027 141.333 50.4763 135.307 50.4763 127.873L50.4763 87.4923C50.4763 80.0584 56.5027 74.032 63.9366 74.032L368.339 74.032Z" fill="#FF6F3D"/>
<path d="M0 13.4603C0 6.02638 6.02639 0 13.4603 0V0C43.196 0 67.3016 24.1056 67.3016 53.8413V215.365H13.4603C6.02638 215.365 0 209.339 0 201.905V13.4603Z" fill="#FAF8F1"/>
<path d="M96.3104 -7.97226e-07C102.77 -6.60779e-07 108.319 4.58911 109.532 10.9342L117.247 51.3151C118.832 59.6119 112.473 67.3016 104.026 67.3016L13.4604 67.3016C6.02646 67.3016 6.52387e-05 61.2752 6.55637e-05 53.8413L6.73288e-05 13.4603C6.76537e-05 6.02638 6.02646 -2.70423e-06 13.4604 -2.54721e-06L96.3104 -7.97226e-07Z" fill="#FAF8F1"/>
<path d="M124.273 148.063C130.751 148.063 136.309 152.677 137.503 159.043L145.075 199.424C146.628 207.708 140.273 215.365 131.845 215.365L13.4603 215.365C6.02637 215.365 -1.98446e-05 209.339 -1.95196e-05 201.905L-1.77545e-05 161.524C-1.74296e-05 154.09 6.02637 148.063 13.4603 148.063L124.273 148.063Z" fill="#FAF8F1"/>
<path d="M117.402 15.9409C115.849 7.65723 122.203 0 130.631 0H170.543C177.021 0 182.579 4.61337 183.773 10.9797L222.095 215.365H165.965C159.487 215.365 153.929 210.752 152.735 204.385L117.402 15.9409Z" fill="#FAF8F1"/>
<path fill-rule="evenodd" clip-rule="evenodd" d="M347.59 15.9409C349.143 7.65724 342.788 0 334.36 0H294.449C287.971 0 282.413 4.61338 281.219 10.9797L273.647 51.3607C272.094 59.6444 278.449 67.3016 286.877 67.3016H326.789C333.266 67.3016 338.825 62.6882 340.019 56.3219L347.59 15.9409ZM333.709 89.9727C335.262 81.689 328.908 74.0318 320.48 74.0318H280.568C274.09 74.0318 268.532 78.6451 267.338 85.0115L245.886 199.424C244.332 207.708 250.687 215.365 259.115 215.365H299.027C305.504 215.365 311.063 210.752 312.257 204.385L333.709 89.9727Z" fill="#FAF8F1"/>
<path d="M338.951 199.924H344.806C344.954 199.924 345.082 199.978 345.189 200.086C345.297 200.193 345.351 200.321 345.351 200.469V202.609C345.351 204.655 344.651 206.176 343.251 207.172C341.865 208.155 340.027 208.646 337.739 208.646C335.451 208.646 333.607 208.155 332.207 207.172C330.821 206.176 330.127 204.642 330.127 202.569V200.187C330.127 199.15 330.323 198.235 330.713 197.441C331.117 196.646 331.675 196.007 332.389 195.523C333.789 194.58 335.572 194.109 337.739 194.109C338.816 194.109 339.799 194.237 340.687 194.493C341.589 194.735 342.302 195.045 342.827 195.422C343.366 195.785 343.823 196.182 344.2 196.613C344.86 197.367 345.189 198.033 345.189 198.612C345.189 198.733 345.142 198.841 345.048 198.935C344.967 199.016 344.866 199.056 344.745 199.056H340.182C339.913 199.056 339.718 198.982 339.597 198.834C339.179 198.309 338.607 198.046 337.881 198.046C337.167 198.046 336.602 198.188 336.185 198.47C335.781 198.753 335.579 199.116 335.579 199.561V202.993C335.579 203.531 335.781 203.955 336.185 204.265C336.588 204.561 337.154 204.709 337.881 204.709C338.621 204.709 339.186 204.568 339.577 204.285C339.98 203.989 340.189 203.646 340.202 203.256H338.951C338.803 203.256 338.675 203.202 338.567 203.094C338.459 202.986 338.405 202.858 338.405 202.71V200.469C338.405 200.321 338.459 200.193 338.567 200.086C338.675 199.978 338.803 199.924 338.951 199.924ZM350.875 208.444H347.059C346.938 208.444 346.83 208.404 346.736 208.323C346.655 208.229 346.615 208.142 346.615 208.061C346.615 207.98 346.622 207.92 346.635 207.879L351.037 194.977C351.158 194.533 351.461 194.311 351.945 194.311H357.558C358.043 194.311 358.346 194.533 358.467 194.977L362.868 207.879C362.882 207.92 362.889 207.98 362.889 208.061C362.889 208.142 362.842 208.229 362.747 208.323C362.667 208.404 362.566 208.444 362.444 208.444H358.628C358.198 208.444 357.895 208.216 357.72 207.758L357.215 206.345H352.289L351.784 207.758C351.609 208.216 351.306 208.444 350.875 208.444ZM356.185 202.408L354.752 198.208L353.318 202.408H356.185ZM375.358 194.311H379.053C379.201 194.311 379.329 194.365 379.437 194.473C379.545 194.58 379.598 194.708 379.598 194.856V207.899C379.598 208.047 379.545 208.175 379.437 208.283C379.329 208.391 379.201 208.444 379.053 208.444H375.399C375.251 208.444 375.123 208.391 375.015 208.283C374.908 208.175 374.854 208.047 374.854 207.899V201.64L373.38 204.548C373.299 204.709 373.178 204.837 373.016 204.931C372.855 205.012 372.693 205.052 372.532 205.052H371.159C370.93 205.052 370.742 204.992 370.594 204.871C370.445 204.75 370.351 204.642 370.311 204.548L368.837 201.64V207.899C368.837 208.047 368.783 208.175 368.675 208.283C368.568 208.391 368.44 208.444 368.292 208.444H364.637C364.489 208.444 364.361 208.391 364.254 208.283C364.146 208.175 364.092 208.047 364.092 207.899V194.856C364.092 194.708 364.146 194.58 364.254 194.473C364.361 194.365 364.489 194.311 364.637 194.311H368.332C368.709 194.311 368.998 194.493 369.2 194.856L371.845 199.702L374.49 194.856C374.692 194.493 374.982 194.311 375.358 194.311ZM387.485 204.507H395.541C395.689 204.507 395.817 204.561 395.925 204.669C396.032 204.777 396.086 204.904 396.086 205.052V207.899C396.086 208.047 396.032 208.175 395.925 208.283C395.817 208.391 395.689 208.444 395.541 208.444H382.781C382.633 208.444 382.505 208.391 382.397 208.283C382.289 208.175 382.236 208.047 382.236 207.899V194.856C382.236 194.708 382.289 194.58 382.397 194.473C382.505 194.365 382.633 194.311 382.781 194.311H395.339C395.487 194.311 395.615 194.365 395.723 194.473C395.83 194.58 395.884 194.708 395.884 194.856V197.703C395.884 197.851 395.83 197.979 395.723 198.087C395.615 198.194 395.487 198.248 395.339 198.248H387.485V199.52H394.229C394.377 199.52 394.505 199.574 394.612 199.682C394.72 199.789 394.774 199.917 394.774 200.065V202.69C394.774 202.838 394.72 202.966 394.612 203.074C394.505 203.181 394.377 203.235 394.229 203.235H387.485V204.507ZM407.264 199.44C409.471 199.695 411.039 200.173 411.968 200.873C412.91 201.56 413.382 202.596 413.382 203.982C413.382 205.369 412.702 206.493 411.342 207.354C409.983 208.216 408.179 208.646 405.931 208.646C403.683 208.646 401.934 208.236 400.682 207.415C399.443 206.58 398.824 205.557 398.824 204.346C398.824 204.05 398.979 203.902 399.289 203.902H403.428C403.71 203.902 403.939 203.989 404.114 204.164C404.491 204.528 405.144 204.709 406.073 204.709C407.351 204.709 407.991 204.514 407.991 204.124C407.991 203.881 407.789 203.693 407.385 203.558C406.981 203.41 406.18 203.269 404.982 203.134C401.173 202.677 399.268 201.216 399.268 198.753C399.268 197.367 399.881 196.249 401.106 195.401C402.331 194.54 403.966 194.109 406.012 194.109C408.071 194.109 409.734 194.56 410.999 195.462C412.264 196.35 412.897 197.293 412.897 198.289C412.897 198.423 412.85 198.531 412.756 198.612C412.675 198.692 412.56 198.733 412.412 198.733H408.071C407.829 198.733 407.621 198.652 407.446 198.491C407.123 198.194 406.638 198.046 405.992 198.046C405.09 198.046 404.639 198.235 404.639 198.612C404.639 198.814 404.814 198.975 405.164 199.096C405.514 199.204 406.214 199.318 407.264 199.44Z" fill="#242424"/>
<path d="M377.384 219.863C378.488 219.991 379.272 220.229 379.736 220.579C380.207 220.923 380.443 221.441 380.443 222.134C380.443 222.827 380.103 223.389 379.423 223.82C378.743 224.251 377.841 224.466 376.717 224.466C375.594 224.466 374.719 224.261 374.093 223.85C373.474 223.433 373.164 222.921 373.164 222.316C373.164 222.168 373.241 222.094 373.396 222.094H375.466C375.607 222.094 375.721 222.137 375.809 222.225C375.997 222.407 376.324 222.497 376.788 222.497C377.428 222.497 377.747 222.4 377.747 222.205C377.747 222.084 377.646 221.989 377.444 221.922C377.242 221.848 376.842 221.777 376.243 221.71C374.338 221.481 373.386 220.751 373.386 219.519C373.386 218.826 373.692 218.268 374.305 217.844C374.917 217.413 375.735 217.197 376.758 217.197C377.788 217.197 378.619 217.423 379.251 217.874C379.884 218.318 380.2 218.789 380.2 219.287C380.2 219.355 380.177 219.408 380.13 219.449C380.089 219.489 380.032 219.509 379.958 219.509H377.788C377.666 219.509 377.562 219.469 377.475 219.388C377.313 219.24 377.071 219.166 376.748 219.166C376.297 219.166 376.071 219.26 376.071 219.449C376.071 219.55 376.159 219.63 376.334 219.691C376.509 219.745 376.859 219.802 377.384 219.863ZM381.923 217.298H388.888C388.962 217.298 389.026 217.325 389.08 217.379C389.134 217.433 389.161 217.497 389.161 217.571V219.196C389.161 219.27 389.134 219.334 389.08 219.388C389.026 219.442 388.962 219.469 388.888 219.469H386.718V224.093C386.718 224.167 386.691 224.231 386.637 224.284C386.583 224.338 386.519 224.365 386.445 224.365H384.366C384.292 224.365 384.228 224.338 384.174 224.284C384.12 224.231 384.093 224.167 384.093 224.093V219.469H381.923C381.849 219.469 381.785 219.442 381.731 219.388C381.677 219.334 381.65 219.27 381.65 219.196V217.571C381.65 217.497 381.677 217.433 381.731 217.379C381.785 217.325 381.849 217.298 381.923 217.298ZM396.668 223.729C396.008 224.22 395.113 224.466 393.983 224.466C392.852 224.466 391.953 224.22 391.287 223.729C390.628 223.238 390.298 222.471 390.298 221.427V217.571C390.298 217.497 390.325 217.433 390.379 217.379C390.432 217.325 390.496 217.298 390.57 217.298H392.68C392.754 217.298 392.818 217.325 392.872 217.379C392.926 217.433 392.953 217.497 392.953 217.571V221.589C392.953 221.865 393.044 222.077 393.225 222.225C393.414 222.373 393.666 222.447 393.983 222.447C394.299 222.447 394.548 222.373 394.73 222.225C394.918 222.077 395.012 221.865 395.012 221.589V217.571C395.012 217.497 395.039 217.433 395.093 217.379C395.147 217.325 395.211 217.298 395.285 217.298H397.395C397.469 217.298 397.533 217.325 397.587 217.379C397.64 217.433 397.667 217.497 397.667 217.571V221.427C397.667 222.471 397.334 223.238 396.668 223.729ZM399.309 217.298H402.529C403.27 217.298 403.912 217.396 404.457 217.591C405.003 217.786 405.443 218.116 405.78 218.581C406.116 219.045 406.285 219.624 406.285 220.317V221.347C406.285 222.423 405.921 223.208 405.194 223.699C404.528 224.143 403.64 224.365 402.529 224.365H399.309C399.235 224.365 399.171 224.338 399.117 224.284C399.063 224.231 399.036 224.167 399.036 224.093V217.571C399.036 217.497 399.063 217.433 399.117 217.379C399.171 217.325 399.235 217.298 399.309 217.298ZM401.661 219.267V222.397H402.58C402.896 222.397 403.145 222.323 403.327 222.174C403.515 222.02 403.609 221.804 403.609 221.528V220.135C403.609 219.859 403.515 219.647 403.327 219.499C403.145 219.344 402.896 219.267 402.58 219.267H401.661ZM414.337 219.368H412.51V222.296H414.337C414.411 222.296 414.475 222.323 414.529 222.376C414.582 222.43 414.609 222.494 414.609 222.568V224.093C414.609 224.167 414.582 224.231 414.529 224.284C414.475 224.338 414.411 224.365 414.337 224.365H407.936C407.862 224.365 407.798 224.338 407.745 224.284C407.691 224.231 407.664 224.167 407.664 224.093V222.568C407.664 222.494 407.691 222.43 407.745 222.376C407.798 222.323 407.862 222.296 407.936 222.296H409.784V219.368H407.936C407.862 219.368 407.798 219.341 407.745 219.287C407.691 219.233 407.664 219.169 407.664 219.095V217.571C407.664 217.497 407.691 217.433 407.745 217.379C407.798 217.325 407.862 217.298 407.936 217.298H414.337C414.411 217.298 414.475 217.325 414.529 217.379C414.582 217.433 414.609 217.497 414.609 217.571V219.095C414.609 219.169 414.582 219.233 414.529 219.287C414.475 219.341 414.411 219.368 414.337 219.368ZM423.469 220.216V221.448C423.469 222.141 423.301 222.72 422.964 223.184C422.628 223.648 422.187 223.978 421.642 224.173C421.097 224.368 420.454 224.466 419.714 224.466C418.973 224.466 418.331 224.368 417.785 224.173C417.24 223.978 416.799 223.648 416.463 223.184C416.126 222.72 415.958 222.134 415.958 221.427V220.236C415.958 219.22 416.305 218.459 416.998 217.955C417.698 217.45 418.603 217.197 419.714 217.197C420.824 217.197 421.726 217.45 422.419 217.955C423.119 218.459 423.469 219.213 423.469 220.216ZM418.684 220.024V221.639C418.684 221.915 418.775 222.127 418.956 222.275C419.145 222.423 419.397 222.497 419.714 222.497C420.03 222.497 420.279 222.423 420.461 222.275C420.649 222.121 420.743 221.905 420.743 221.629V220.034C420.743 219.758 420.649 219.546 420.461 219.398C420.279 219.243 420.03 219.166 419.714 219.166C419.397 219.166 419.145 219.24 418.956 219.388C418.775 219.536 418.684 219.748 418.684 220.024Z" fill="#FAF8F1"/>
</svg>
