<svg width="401" height="69" viewBox="0 0 401 69" fill="none" xmlns="http://www.w3.org/2000/svg">
<path d="M2.59897 68.1288C1.89409 68.1288 1.28534 67.8724 0.772702 67.3598C0.260065 66.8472 0.00374651 66.2384 0.00374651 65.5335V3.44038C0.00374651 2.73551 0.260065 2.12675 0.772702 1.61412C1.28534 1.10148 1.89409 0.845158 2.59897 0.845158H21.4384C22.1433 0.845158 22.752 1.10148 23.2646 1.61412C23.7773 2.12675 24.0336 2.73551 24.0336 3.44038V32.5646L44.1226 3.05591C44.5711 2.35103 45.1158 1.80636 45.7566 1.42188C46.3974 1.0374 47.1663 0.845158 48.0635 0.845158H64.6921C65.397 0.845158 66.0057 1.10148 66.5184 1.61412C67.031 2.12675 67.2873 2.73551 67.2873 3.44038V65.5335C67.2873 66.2384 67.031 66.8472 66.5184 67.3598C66.0057 67.8724 65.397 68.1288 64.6921 68.1288H45.8527C45.1478 68.1288 44.5391 67.8724 44.0264 67.3598C43.5138 66.8472 43.2575 66.2384 43.2575 65.5335V38.524L23.1685 65.918C22.784 66.4947 22.3035 67.0074 21.7267 67.4559C21.15 67.9045 20.317 68.1288 19.2276 68.1288H2.59897ZM80.4144 68.1288C79.7095 68.1288 79.1008 67.8724 78.5881 67.3598C78.0755 66.8472 77.8192 66.2384 77.8192 65.5335V3.44038C77.8192 2.73551 78.0755 2.12675 78.5881 1.61412C79.1008 1.10148 79.7095 0.845158 80.4144 0.845158H125.591C126.295 0.845158 126.904 1.10148 127.417 1.61412C127.929 2.12675 128.186 2.73551 128.186 3.44038V17.9544C128.186 18.6593 127.929 19.268 127.417 19.7807C126.904 20.2933 126.295 20.5496 125.591 20.5496H101.849V65.5335C101.849 66.2384 101.593 66.8472 101.08 67.3598C100.567 67.8724 99.9587 68.1288 99.2538 68.1288H80.4144ZM137.955 68.1288C137.25 68.1288 136.641 67.8724 136.128 67.3598C135.616 66.8472 135.359 66.2384 135.359 65.5335V3.44038C135.359 2.73551 135.616 2.12675 136.128 1.61412C136.641 1.10148 137.25 0.845158 137.955 0.845158H167.079C172.91 0.845158 177.972 1.71023 182.266 3.44038C186.623 5.10645 189.987 7.70168 192.358 11.2261C194.793 14.6864 196.011 19.0758 196.011 24.3944C196.011 29.713 194.793 34.0704 192.358 37.4667C189.987 40.7988 186.623 43.2659 182.266 44.8679C177.972 46.4058 172.91 47.1747 167.079 47.1747H160.35V65.5335C160.35 66.2384 160.094 66.8472 159.581 67.3598C159.069 67.8724 158.46 68.1288 157.755 68.1288H137.955ZM159.87 29.3926H166.598C167.623 29.3926 168.617 29.0081 169.578 28.2392C170.539 27.4062 171.02 26.0605 171.02 24.2022C171.02 22.9847 170.699 21.7672 170.059 20.5496C169.482 19.3321 168.328 18.7234 166.598 18.7234H159.87V29.3926ZM199.959 68.1288C199.382 68.1288 198.87 67.9365 198.421 67.552C198.037 67.1035 197.845 66.5908 197.845 66.0141C197.845 65.7578 197.877 65.5335 197.941 65.3413L219.375 4.0171C219.568 3.31222 220.016 2.60735 220.721 1.90248C221.426 1.1976 222.419 0.845158 223.701 0.845158H244.559C245.84 0.845158 246.833 1.1976 247.538 1.90248C248.243 2.60735 248.692 3.31222 248.884 4.0171L270.319 65.3413C270.383 65.5335 270.415 65.7578 270.415 66.0141C270.415 66.5908 270.19 67.1035 269.742 67.552C269.357 67.9365 268.877 68.1288 268.3 68.1288H250.518C249.3 68.1288 248.403 67.8724 247.827 67.3598C247.314 66.7831 246.962 66.2384 246.769 65.7258L244.462 59.3819H223.797L221.49 65.7258C221.298 66.2384 220.945 66.7831 220.433 67.3598C219.92 67.8724 219.023 68.1288 217.741 68.1288H199.959ZM228.699 40.6386H239.56L234.082 22.7604L228.699 40.6386ZM293.184 68.1288C292.479 68.1288 291.87 67.8724 291.357 67.3598C290.845 66.8472 290.589 66.2384 290.589 65.5335V21.5108H274.633C273.928 21.5108 273.319 21.2545 272.806 20.7419C272.294 20.2292 272.037 19.6205 272.037 18.9156V3.44038C272.037 2.73551 272.294 2.12675 272.806 1.61412C273.319 1.10148 273.928 0.845158 274.633 0.845158H330.959C331.664 0.845158 332.272 1.10148 332.785 1.61412C333.298 2.12675 333.554 2.73551 333.554 3.44038V18.9156C333.554 19.6205 333.298 20.2292 332.785 20.7419C332.272 21.2545 331.664 21.5108 330.959 21.5108H315.003V65.5335C315.003 66.2384 314.747 66.8472 314.234 67.3598C313.721 67.8724 313.112 68.1288 312.408 68.1288H293.184ZM343.053 68.1288C342.348 68.1288 341.74 67.8724 341.227 67.3598C340.714 66.8472 340.458 66.2384 340.458 65.5335V3.44038C340.458 2.73551 340.714 2.12675 341.227 1.61412C341.74 1.10148 342.348 0.845158 343.053 0.845158H361.893C362.597 0.845158 363.206 1.10148 363.719 1.61412C364.232 2.12675 364.488 2.73551 364.488 3.44038V21.7992H370.736C380.027 21.7992 387.236 23.6575 392.362 27.3741C397.553 31.0907 400.148 36.8259 400.148 44.5795C400.148 49.7059 398.963 54.0312 396.592 57.5556C394.285 61.08 390.921 63.7393 386.499 65.5335C382.142 67.2637 376.887 68.1288 370.736 68.1288H343.053ZM364.488 50.2505H370.736C372.273 50.2505 373.395 49.7059 374.1 48.6165C374.805 47.5272 375.157 46.2456 375.157 44.7717C375.157 43.0416 374.709 41.76 373.811 40.927C372.914 40.0298 371.889 39.5813 370.736 39.5813H364.488V50.2505Z" fill="#242424"/>
</svg>
