<svg width="486" height="149" viewBox="0 0 486 149" fill="none" xmlns="http://www.w3.org/2000/svg">
<rect x="0.526703" y="0.128754" width="480.597" height="144.179" rx="48.0597" fill="#FFB55F"/>
<path d="M48.599 107.129C47.8941 107.129 47.2853 106.872 46.7727 106.36C46.2601 105.847 46.0037 105.238 46.0037 104.534V42.4404C46.0037 41.7355 46.2601 41.1268 46.7727 40.6141C47.2853 40.1015 47.8941 39.8452 48.599 39.8452H67.4384C68.1433 39.8452 68.752 40.1015 69.2646 40.6141C69.7773 41.1268 70.0336 41.7355 70.0336 42.4404V71.5646L90.1226 42.0559C90.5711 41.351 91.1158 40.8064 91.7566 40.4219C92.3974 40.0374 93.1663 39.8452 94.0635 39.8452H110.692C111.397 39.8452 112.006 40.1015 112.518 40.6141C113.031 41.1268 113.287 41.7355 113.287 42.4404V104.534C113.287 105.238 113.031 105.847 112.518 106.36C112.006 106.872 111.397 107.129 110.692 107.129H91.8527C91.1478 107.129 90.5391 106.872 90.0264 106.36C89.5138 105.847 89.2575 105.238 89.2575 104.534V77.524L69.1685 104.918C68.784 105.495 68.3035 106.007 67.7267 106.456C67.15 106.904 66.317 107.129 65.2276 107.129H48.599ZM126.414 107.129C125.71 107.129 125.101 106.872 124.588 106.36C124.075 105.847 123.819 105.238 123.819 104.534V42.4404C123.819 41.7355 124.075 41.1268 124.588 40.6141C125.101 40.1015 125.71 39.8452 126.414 39.8452H171.591C172.295 39.8452 172.904 40.1015 173.417 40.6141C173.929 41.1268 174.186 41.7355 174.186 42.4404V56.9544C174.186 57.6593 173.929 58.268 173.417 58.7807C172.904 59.2933 172.295 59.5496 171.591 59.5496H147.849V104.534C147.849 105.238 147.593 105.847 147.08 106.36C146.567 106.872 145.959 107.129 145.254 107.129H126.414ZM183.955 107.129C183.25 107.129 182.641 106.872 182.128 106.36C181.616 105.847 181.359 105.238 181.359 104.534V42.4404C181.359 41.7355 181.616 41.1268 182.128 40.6141C182.641 40.1015 183.25 39.8452 183.955 39.8452H213.079C218.91 39.8452 223.972 40.7102 228.266 42.4404C232.623 44.1065 235.987 46.7017 238.358 50.2261C240.793 53.6864 242.011 58.0758 242.011 63.3944C242.011 68.713 240.793 73.0704 238.358 76.4667C235.987 79.7988 232.623 82.2659 228.266 83.8679C223.972 85.4058 218.91 86.1747 213.079 86.1747H206.35V104.534C206.35 105.238 206.094 105.847 205.581 106.36C205.069 106.872 204.46 107.129 203.755 107.129H183.955ZM205.87 68.3926H212.598C213.623 68.3926 214.617 68.0081 215.578 67.2392C216.539 66.4062 217.02 65.0605 217.02 63.2022C217.02 61.9847 216.699 60.7672 216.059 59.5496C215.482 58.3321 214.328 57.7234 212.598 57.7234H205.87V68.3926ZM245.959 107.129C245.382 107.129 244.87 106.937 244.421 106.552C244.037 106.103 243.845 105.591 243.845 105.014C243.845 104.758 243.877 104.534 243.941 104.341L265.375 43.0171C265.568 42.3122 266.016 41.6073 266.721 40.9025C267.426 40.1976 268.419 39.8452 269.701 39.8452H290.559C291.84 39.8452 292.833 40.1976 293.538 40.9025C294.243 41.6073 294.692 42.3122 294.884 43.0171L316.319 104.341C316.383 104.534 316.415 104.758 316.415 105.014C316.415 105.591 316.19 106.103 315.742 106.552C315.357 106.937 314.877 107.129 314.3 107.129H296.518C295.3 107.129 294.403 106.872 293.827 106.36C293.314 105.783 292.962 105.238 292.769 104.726L290.462 98.3819H269.797L267.49 104.726C267.298 105.238 266.945 105.783 266.433 106.36C265.92 106.872 265.023 107.129 263.741 107.129H245.959ZM274.699 79.6386H285.56L280.082 61.7604L274.699 79.6386ZM339.184 107.129C338.479 107.129 337.87 106.872 337.357 106.36C336.845 105.847 336.589 105.238 336.589 104.534V60.5108H320.633C319.928 60.5108 319.319 60.2545 318.806 59.7419C318.294 59.2292 318.037 58.6205 318.037 57.9156V42.4404C318.037 41.7355 318.294 41.1268 318.806 40.6141C319.319 40.1015 319.928 39.8452 320.633 39.8452H376.959C377.664 39.8452 378.272 40.1015 378.785 40.6141C379.298 41.1268 379.554 41.7355 379.554 42.4404V57.9156C379.554 58.6205 379.298 59.2292 378.785 59.7419C378.272 60.2545 377.664 60.5108 376.959 60.5108H361.003V104.534C361.003 105.238 360.747 105.847 360.234 106.36C359.721 106.872 359.112 107.129 358.408 107.129H339.184ZM389.053 107.129C388.348 107.129 387.74 106.872 387.227 106.36C386.714 105.847 386.458 105.238 386.458 104.534V42.4404C386.458 41.7355 386.714 41.1268 387.227 40.6141C387.74 40.1015 388.348 39.8452 389.053 39.8452H407.893C408.597 39.8452 409.206 40.1015 409.719 40.6141C410.232 41.1268 410.488 41.7355 410.488 42.4404V60.7992H416.736C426.027 60.7992 433.236 62.6575 438.362 66.3741C443.553 70.0907 446.148 75.8259 446.148 83.5795C446.148 88.7059 444.963 93.0312 442.592 96.5556C440.285 100.08 436.921 102.739 432.499 104.534C428.142 106.264 422.887 107.129 416.736 107.129H389.053ZM410.488 89.2505H416.736C418.273 89.2505 419.395 88.7059 420.1 87.6165C420.805 86.5272 421.157 85.2456 421.157 83.7717C421.157 82.0416 420.709 80.76 419.811 79.927C418.914 79.0298 417.889 78.5813 416.736 78.5813H410.488V89.2505Z" fill="#242424"/>
</svg>
