<svg width="560" height="79" viewBox="0 0 560 79" fill="none" xmlns="http://www.w3.org/2000/svg">
<path d="M3.22394 78C2.60794 78 2.07594 77.804 1.62794 77.412C1.17994 76.964 0.955938 76.404 0.955938 75.732V21.468C0.955938 20.852 1.17994 20.32 1.62794 19.872C2.07594 19.424 2.60794 19.2 3.22394 19.2H19.6879C20.3039 19.2 20.8359 19.424 21.2839 19.872C21.7319 20.32 21.9559 20.852 21.9559 21.468V39.108H35.5639V21.468C35.5639 20.852 35.7879 20.32 36.2359 19.872C36.6839 19.424 37.2159 19.2 37.8319 19.2H54.2959C54.9119 19.2 55.4439 19.424 55.8919 19.872C56.3399 20.32 56.5639 20.852 56.5639 21.468V75.732C56.5639 76.348 56.3399 76.88 55.8919 77.328C55.4439 77.776 54.9119 78 54.2959 78H37.8319C37.2159 78 36.6839 77.776 36.2359 77.328C35.7879 76.88 35.5639 76.348 35.5639 75.732V57.588H21.9559V75.732C21.9559 76.348 21.7319 76.88 21.2839 77.328C20.8359 77.776 20.3039 78 19.6879 78H3.22394ZM63.0707 78C62.5667 78 62.1187 77.832 61.7267 77.496C61.3907 77.104 61.2227 76.656 61.2227 76.152C61.2227 75.928 61.2507 75.732 61.3067 75.564L80.0387 21.972C80.2067 21.356 80.5987 20.74 81.2147 20.124C81.8307 19.508 82.6987 19.2 83.8187 19.2H102.047C103.167 19.2 104.035 19.508 104.651 20.124C105.267 20.74 105.659 21.356 105.827 21.972L124.559 75.564C124.615 75.732 124.643 75.928 124.643 76.152C124.643 76.656 124.447 77.104 124.055 77.496C123.719 77.832 123.299 78 122.795 78H107.255C106.191 78 105.407 77.776 104.903 77.328C104.455 76.824 104.147 76.348 103.979 75.9L101.963 70.356H83.9027L81.8867 75.9C81.7187 76.348 81.4107 76.824 80.9627 77.328C80.5147 77.776 79.7307 78 78.6107 78H63.0707ZM88.1867 53.976H97.6787L92.8907 38.352L88.1867 53.976ZM155.881 78.84C150.505 78.84 145.745 78.056 141.601 76.488C137.457 74.92 134.153 72.456 131.689 69.096C129.281 65.736 127.965 61.396 127.741 56.076C127.685 53.78 127.657 51.316 127.657 48.684C127.657 46.052 127.685 43.532 127.741 41.124C127.965 35.916 129.309 31.632 131.773 28.272C134.293 24.912 137.625 22.42 141.769 20.796C145.969 19.172 150.673 18.36 155.881 18.36C159.465 18.36 162.909 18.78 166.213 19.62C169.573 20.404 172.597 21.664 175.285 23.4C177.973 25.136 180.101 27.376 181.669 30.12C183.293 32.808 184.133 36.056 184.189 39.864C184.189 40.368 183.993 40.816 183.601 41.208C183.265 41.544 182.845 41.712 182.341 41.712H165.205C164.309 41.712 163.637 41.544 163.189 41.208C162.797 40.816 162.433 40.172 162.097 39.276C161.481 37.484 160.641 36.28 159.577 35.664C158.513 35.048 157.253 34.74 155.797 34.74C153.949 34.74 152.465 35.244 151.345 36.252C150.281 37.204 149.693 38.968 149.581 41.544C149.413 46.136 149.413 50.84 149.581 55.656C149.693 58.232 150.281 60.024 151.345 61.032C152.465 61.984 153.949 62.46 155.797 62.46C157.253 62.46 158.513 62.124 159.577 61.452C160.697 60.78 161.537 59.604 162.097 57.924C162.377 56.972 162.741 56.328 163.189 55.992C163.637 55.656 164.309 55.488 165.205 55.488H182.341C182.845 55.488 183.265 55.684 183.601 56.076C183.993 56.412 184.189 56.832 184.189 57.336C184.133 61.144 183.293 64.42 181.669 67.164C180.101 69.852 177.973 72.064 175.285 73.8C172.597 75.536 169.573 76.824 166.213 77.664C162.909 78.448 159.465 78.84 155.881 78.84ZM206.146 78C205.53 78 204.998 77.776 204.55 77.328C204.102 76.88 203.878 76.348 203.878 75.732V37.26H189.934C189.318 37.26 188.786 37.036 188.338 36.588C187.89 36.14 187.666 35.608 187.666 34.992V21.468C187.666 20.852 187.89 20.32 188.338 19.872C188.786 19.424 189.318 19.2 189.934 19.2H239.158C239.774 19.2 240.306 19.424 240.754 19.872C241.202 20.32 241.426 20.852 241.426 21.468V34.992C241.426 35.608 241.202 36.14 240.754 36.588C240.306 37.036 239.774 37.26 239.158 37.26H225.214V75.732C225.214 76.348 224.99 76.88 224.542 77.328C224.094 77.776 223.562 78 222.946 78H206.146ZM249.728 78C249.112 78 248.58 77.776 248.132 77.328C247.684 76.88 247.46 76.348 247.46 75.732V21.468C247.46 20.852 247.684 20.32 248.132 19.872C248.58 19.424 249.112 19.2 249.728 19.2H275.18C280.276 19.2 284.7 19.956 288.452 21.468C292.26 22.924 295.2 25.192 297.272 28.272C299.4 31.296 300.464 35.132 300.464 39.78C300.464 44.428 299.4 48.236 297.272 51.204C295.2 54.116 292.26 56.272 288.452 57.672C284.7 59.016 280.276 59.688 275.18 59.688H269.3V75.732C269.3 76.348 269.076 76.88 268.628 77.328C268.18 77.776 267.648 78 267.032 78H249.728ZM268.88 44.148H274.76C275.656 44.148 276.524 43.812 277.364 43.14C278.204 42.412 278.624 41.236 278.624 39.612C278.624 38.548 278.344 37.484 277.784 36.42C277.28 35.356 276.272 34.824 274.76 34.824H268.88V44.148ZM333.23 78.84C327.742 78.84 322.926 78 318.782 76.32C314.694 74.64 311.446 72.12 309.038 68.76C306.686 65.344 305.398 61.144 305.174 56.16C305.118 53.864 305.09 51.428 305.09 48.852C305.09 46.276 305.118 43.784 305.174 41.376C305.398 36.448 306.686 32.276 309.038 28.86C311.39 25.444 314.638 22.84 318.782 21.048C322.926 19.256 327.742 18.36 333.23 18.36C338.718 18.36 343.534 19.256 347.678 21.048C351.822 22.84 355.07 25.444 357.422 28.86C359.83 32.276 361.118 36.448 361.286 41.376C361.398 43.784 361.454 46.276 361.454 48.852C361.454 51.428 361.398 53.864 361.286 56.16C361.062 61.144 359.746 65.344 357.338 68.76C354.986 72.12 351.738 74.64 347.594 76.32C343.506 78 338.718 78.84 333.23 78.84ZM333.23 62.46C335.078 62.46 336.562 61.928 337.682 60.864C338.802 59.744 339.39 58.008 339.446 55.656C339.558 53.248 339.614 50.868 339.614 48.516C339.614 46.164 339.558 43.84 339.446 41.544C339.39 39.976 339.082 38.688 338.522 37.68C338.018 36.672 337.318 35.944 336.422 35.496C335.526 34.992 334.462 34.74 333.23 34.74C332.054 34.74 330.99 34.992 330.038 35.496C329.142 35.944 328.414 36.672 327.854 37.68C327.35 38.688 327.07 39.976 327.014 41.544C326.958 43.84 326.93 46.164 326.93 48.516C326.93 50.868 326.958 53.248 327.014 55.656C327.126 58.008 327.714 59.744 328.778 60.864C329.898 61.928 331.382 62.46 333.23 62.46ZM371.298 78C370.682 78 370.15 77.776 369.702 77.328C369.254 76.88 369.03 76.348 369.03 75.732V21.468C369.03 20.852 369.254 20.32 369.702 19.872C370.15 19.424 370.682 19.2 371.298 19.2H387.762C388.378 19.2 388.91 19.424 389.358 19.872C389.806 20.32 390.03 20.852 390.03 21.468V46.92L407.586 21.132C407.978 20.516 408.454 20.04 409.014 19.704C409.574 19.368 410.246 19.2 411.03 19.2H425.562C426.178 19.2 426.71 19.424 427.158 19.872C427.606 20.32 427.83 20.852 427.83 21.468V75.732C427.83 76.348 427.606 76.88 427.158 77.328C426.71 77.776 426.178 78 425.562 78H409.098C408.482 78 407.95 77.776 407.502 77.328C407.054 76.88 406.83 76.348 406.83 75.732V52.128L389.274 76.068C388.938 76.572 388.518 77.02 388.014 77.412C387.51 77.804 386.782 78 385.83 78H371.298ZM399.27 15.756C395.518 15.756 392.41 15.168 389.946 13.992C387.538 12.816 385.718 11.22 384.486 9.20399C383.31 7.188 382.722 4.892 382.722 2.316C382.722 1.868 382.834 1.504 383.058 1.224C383.338 0.887998 383.758 0.719999 384.318 0.719999H394.314C394.818 0.719999 395.21 0.887998 395.49 1.224C395.77 1.504 395.91 1.868 395.91 2.316C395.91 2.988 395.994 3.632 396.162 4.248C396.386 4.808 396.722 5.256 397.17 5.592C397.674 5.92799 398.374 6.09599 399.27 6.09599C400.166 6.09599 400.838 5.92799 401.286 5.592C401.79 5.256 402.126 4.808 402.294 4.248C402.518 3.632 402.63 2.988 402.63 2.316C402.63 1.868 402.77 1.504 403.05 1.224C403.33 0.887998 403.722 0.719999 404.226 0.719999H414.222C414.726 0.719999 415.118 0.887998 415.398 1.224C415.678 1.504 415.818 1.868 415.818 2.316C415.818 4.892 415.202 7.188 413.97 9.20399C412.794 11.22 410.974 12.816 408.51 13.992C406.102 15.168 403.022 15.756 399.27 15.756ZM439.302 78C438.686 78 438.154 77.804 437.706 77.412C437.258 76.964 437.034 76.404 437.034 75.732V21.468C437.034 20.852 437.258 20.32 437.706 19.872C438.154 19.424 438.686 19.2 439.302 19.2H455.766C456.382 19.2 456.914 19.424 457.362 19.872C457.81 20.32 458.034 20.852 458.034 21.468V39.108H459.378L469.626 21.048C469.906 20.6 470.298 20.18 470.802 19.788C471.362 19.396 472.09 19.2 472.986 19.2H491.55C492.054 19.2 492.474 19.396 492.81 19.788C493.202 20.124 493.398 20.544 493.398 21.048C493.398 21.384 493.314 21.692 493.146 21.972L478.026 47.34L494.574 75.228C494.742 75.452 494.826 75.76 494.826 76.152C494.826 76.656 494.63 77.104 494.238 77.496C493.902 77.832 493.482 78 492.978 78H473.826C472.706 78 471.894 77.748 471.39 77.244C470.886 76.684 470.55 76.292 470.382 76.068L460.05 57.588H458.034V75.732C458.034 76.348 457.81 76.88 457.362 77.328C456.914 77.776 456.382 78 455.766 78H439.302ZM502.548 78C501.932 78 501.4 77.776 500.952 77.328C500.504 76.88 500.28 76.348 500.28 75.732V21.468C500.28 20.852 500.504 20.32 500.952 19.872C501.4 19.424 501.932 19.2 502.548 19.2H519.012C519.628 19.2 520.16 19.424 520.608 19.872C521.056 20.32 521.28 20.852 521.28 21.468V46.92L538.836 21.132C539.228 20.516 539.704 20.04 540.264 19.704C540.824 19.368 541.496 19.2 542.28 19.2H556.812C557.428 19.2 557.96 19.424 558.408 19.872C558.856 20.32 559.08 20.852 559.08 21.468V75.732C559.08 76.348 558.856 76.88 558.408 77.328C557.96 77.776 557.428 78 556.812 78H540.348C539.732 78 539.2 77.776 538.752 77.328C538.304 76.88 538.08 76.348 538.08 75.732V52.128L520.524 76.068C520.188 76.572 519.768 77.02 519.264 77.412C518.76 77.804 518.032 78 517.08 78H502.548Z" fill="white" fill-opacity="0.5"/>
</svg>
