<svg width="112" height="108" viewBox="0 0 112 108" fill="none" xmlns="http://www.w3.org/2000/svg">
<rect x="1.74084" y="10.9452" width="14.432" height="136.21" rx="7.21602" transform="rotate(-45 1.74084 10.9452)" fill="#F0F0F0"/>
<path fill-rule="evenodd" clip-rule="evenodd" d="M7.26299 25.2301C2.96784 27.0754 0.000366211 31.342 0.000366211 36.258V72.5456C0.000366211 79.173 5.37295 84.5456 12.0004 84.5456H18.3197C20.6605 84.5456 22.9503 85.2302 24.9069 86.5152L42.0798 97.7932C50.0596 103.034 60.667 97.3097 60.667 87.7628V78.6341L7.26299 25.2301ZM102.5 82.5338L90.532 70.5658C90.6641 70.3574 90.7938 70.1472 90.9211 69.9354C93.8599 65.0444 95.389 59.4359 95.3392 53.7301C95.2894 48.0243 93.6627 42.4434 90.639 37.6044C89.0959 35.135 87.2197 32.9079 85.0736 30.9805C81.6507 27.9065 79.8698 22.9732 81.9226 18.856C83.9753 14.7389 89.0351 13.0116 92.7319 15.7498C97.5048 19.285 101.594 23.6974 104.767 28.776C109.419 36.2206 111.922 44.8066 111.999 53.5847C112.075 62.3629 109.723 70.9913 105.202 78.5159C104.367 79.9042 103.465 81.2449 102.5 82.5338ZM60.667 40.7008L34.893 14.9268L42.0798 10.207C50.0596 4.96637 60.667 10.6905 60.667 20.2373V40.7008Z" fill="#F0F0F0"/>
</svg>
