<svg width="112" height="112" viewBox="0 0 112 112" fill="none" xmlns="http://www.w3.org/2000/svg">
<path d="M0 38.2579C0 31.99 4.824 26.7778 11.0732 26.2938L18.8283 25.6931C20.8481 25.5366 22.7955 24.8713 24.4888 23.7592L42.0794 12.2069C50.0592 6.96627 60.6667 12.6904 60.6667 22.2373V89.7627C60.6667 99.3096 50.0592 105.034 42.0794 99.7931L24.9066 88.5151C22.9499 87.2301 20.6602 86.5455 18.3193 86.5455H12C5.37258 86.5455 0 81.1729 0 74.5455V38.2579Z" fill="#F0F0F0"/>
<path d="M82.5329 90.8329C84.6572 94.9137 89.7463 96.5524 93.3948 93.75C98.1052 90.1321 102.117 85.649 105.201 80.5158C109.722 72.9912 112.075 64.3628 111.998 55.5847C111.922 46.8065 109.419 38.2205 104.767 30.7759C101.594 25.6973 97.5044 21.285 92.7316 17.7497C89.0347 15.0115 83.975 16.7388 81.9222 20.856C79.8695 24.9731 81.6504 29.9065 85.0732 32.9804C87.2193 34.9078 89.0955 37.1349 90.6386 39.6043C93.6623 44.4433 95.289 50.0242 95.3388 55.73C95.3886 61.4358 93.8596 67.0443 90.9208 71.9353C89.421 74.4313 87.584 76.6908 85.4718 78.6553C82.1031 81.7886 80.4086 86.7522 82.5329 90.8329Z" fill="#F0F0F0"/>
</svg>
