<svg width="45" height="70" viewBox="0 0 45 70" fill="none" xmlns="http://www.w3.org/2000/svg">
<path fill-rule="evenodd" clip-rule="evenodd" d="M2.64546 30.5181C0.0798524 33.0837 0.0798543 37.2434 2.64546 39.809L10.3879 47.5514C10.3879 47.5514 10.3879 47.5514 10.3879 47.5514V47.5514C10.3879 47.5514 10.3879 47.5514 10.3879 47.5514L30.5182 67.6817C33.0838 70.2473 37.2435 70.2473 39.8091 67.6817L42.9061 64.5848C45.4717 62.0192 45.4717 57.8595 42.9061 55.2939L27.4212 39.809C24.8556 37.2434 24.8556 33.0837 27.4212 30.5181L42.906 15.0333C45.4716 12.4677 45.4716 8.30803 42.906 5.74242L39.809 2.64546C37.2434 0.0798477 33.0837 0.0798453 30.5181 2.64545L2.64546 30.5181Z" fill="#F0F0F0"/>
</svg>
