<svg width="45" height="70" viewBox="0 0 45 70" fill="none" xmlns="http://www.w3.org/2000/svg">
<path fill-rule="evenodd" clip-rule="evenodd" d="M42.6817 39.809C45.2473 37.2434 45.2473 33.0837 42.6817 30.5181L34.9393 22.7757C34.9393 22.7757 34.9393 22.7757 34.9393 22.7757V22.7757C34.9393 22.7757 34.9393 22.7757 34.9393 22.7757L14.809 2.64542C12.2434 0.0798149 8.08368 0.0798167 5.51807 2.64543L2.42111 5.74239C-0.144497 8.308 -0.144497 12.4677 2.42111 15.0333L17.906 30.5181C20.4716 33.0838 20.4716 37.2434 17.906 39.809L2.42118 55.2938C-0.144432 57.8594 -0.14443 62.0191 2.42118 64.5847L5.51814 67.6817C8.08375 70.2473 12.2434 70.2473 14.809 67.6817L42.6817 39.809Z" fill="#F0F0F0"/>
</svg>
